<svg width="173" height="51" viewBox="0 0 173 51" fill="none" xmlns="http://www.w3.org/2000/svg">
<path d="M23.508 0.0553295C45.1464 -1.31383 58.6969 23.0205 45.7251 40.5232C34.2214 56.0357 10.1128 53.3538 2.22253 35.7947C-4.94792 19.8164 6.04771 1.17042 23.508 0.0694449V0.0553295Z" fill="#4CD7F8"/>
<path d="M23.9031 1.04337C43.2408 -0.0717211 56.2407 20.8468 46.4025 37.6578C37.4677 52.9162 15.6035 53.8901 5.42653 39.394C-5.52676 23.7968 4.96073 2.13023 23.9031 1.04337Z" fill="#FEDD45"/>
<path d="M33.0075 47.4962C30.9044 48.1596 28.6883 48.7383 26.4581 48.6536L15.8295 40.6786L23.4516 40.2975L32.9934 47.4821L33.0075 47.4962Z" fill="#4CD7F8"/>
<path d="M22.3508 39.4082C22.3508 39.5776 22.0261 39.5917 21.9132 39.6058C21.4333 39.6482 20.911 39.5776 20.4311 39.6058C18.5115 39.6905 16.5777 39.9446 14.6581 39.8599C11.1999 37.2768 7.68522 34.7785 4.29761 32.1107C7.1065 32.1672 9.91541 32.2236 12.7102 32.3366L22.3508 39.4223V39.4082Z" fill="#4CD7F8"/>
<path d="M25.1031 48.7806C19.3159 48.6959 13.6416 46.4375 9.40711 42.5135C9.08246 42.2171 8.53198 41.709 8.2779 41.3843C8.20733 41.2855 8.08029 41.2573 8.13675 41.0879C10.2681 41.0314 12.4136 40.7632 14.545 40.8479L25.1172 48.7806H25.1031Z" fill="#4CD7F8"/>
<path d="M30.0434 39.2106C27.9544 39.2106 25.8794 39.3659 23.8045 39.4929C20.6851 37.1357 17.4669 34.9196 14.3757 32.5342C14.3192 32.4918 14.0793 32.4495 14.2486 32.3083C14.3333 32.2378 14.8979 32.4071 15.0814 32.4071C17.1422 32.4918 19.203 32.3648 21.2638 32.5483L29.874 38.9424L30.0434 39.2247V39.2106Z" fill="#4CD7F8"/>
<path d="M38.0464 44.9413C38.1876 45.153 34.3765 47.115 33.9672 47.1009L24.9194 40.3116C26.9802 40.0998 29.0834 40.114 31.1724 39.9446C33.5014 41.5678 35.6751 43.4028 38.0464 44.9554V44.9413Z" fill="#4CD7F8"/>
<path d="M36.6632 38.8154L33.7555 39.013C32.9792 38.9283 32.1888 39.14 31.4407 39.0553C28.5894 36.8957 25.6394 34.8208 22.8446 32.5906C24.7643 32.5624 26.6698 32.5906 28.5753 32.7318L36.6632 38.8013V38.8154Z" fill="#4CD7F8"/>
<path d="M13.2605 40.0011C11.6373 40.0858 9.99992 40.1563 8.37669 40.1987C7.99558 40.1987 7.69917 40.4386 7.28983 40.1987C7.10633 40.0858 6.5135 39.2248 6.33001 38.9848C4.9185 37.0228 3.73283 34.7362 3.09766 32.3931L13.2605 39.987V40.0011Z" fill="#4CD7F8"/>
<path d="M41.7872 38.4202C41.7872 38.4202 41.8295 38.6319 41.7448 38.6178C40.4745 38.5331 39.2182 38.8577 37.9479 38.6601C35.5201 36.6981 32.7677 34.9902 30.354 33.0282C30.2411 32.9435 30.0999 32.8306 30.0435 32.6895L34.4615 32.8588C36.6916 34.6232 38.9924 36.2888 41.2085 38.0532C41.3355 38.152 41.7731 38.3919 41.7872 38.4061V38.4202Z" fill="#4CD7F8"/>
<path d="M32.6121 40.0011C32.6545 39.86 33.1203 39.8176 33.2473 39.8035C34.7435 39.6906 36.2679 39.7611 37.7641 39.62C37.9617 39.6623 40.8553 41.8078 41.1376 42.076C41.2223 42.1607 41.4058 42.2595 41.3776 42.4007C41.3494 42.57 38.9357 44.5179 38.7663 44.5038L32.598 40.0011H32.6121Z" fill="#4CD7F8"/>
<path d="M39.2183 39.507C40.3475 39.6622 41.8295 39.1964 42.9164 39.4081C43.0434 39.4364 43.6645 39.9022 43.6504 39.9445C43.354 40.1986 42.3377 41.6807 42.0272 41.6807C41.8437 41.6807 39.5006 39.8316 39.2183 39.507Z" fill="#4CD7F8"/>
<path d="M46.1344 14.7351L45.9509 14.848L40.4037 10.8252V10.5993C40.5025 10.5147 40.686 10.2888 40.6154 10.2041C40.4601 10.3735 40.1778 10.4723 40.0226 10.5993L39.7403 10.684L35.4069 8.75027L35.3787 8.52443L36.6632 5.95549L35.1811 8.12921L34.7859 8.2139C33.5155 7.76222 32.2028 7.45168 30.876 7.26819L30.5373 7.04235C30.7913 5.92726 31.0454 4.81217 31.2289 3.68296L30.2408 6.74593L30.0997 6.92943L28.5188 6.67536L28.42 6.46363C28.3635 6.74593 27.1073 6.7177 26.8814 6.66124L26.7403 6.46363C26.5427 6.63301 25.7381 6.64712 25.6111 6.36482C25.4699 5.27796 25.5546 4.16288 25.5123 3.0619C25.5123 2.94898 25.5829 2.69491 25.4135 2.72314C25.3288 4.10641 25.2723 5.48969 25.2159 6.87297L24.9336 7.07058C23.7761 7.04235 22.6469 7.12704 21.5036 7.32465C21.1084 7.40934 20.8261 7.32465 20.6708 7.07058C20.3179 5.92726 19.9651 4.78394 19.6828 3.61239C19.4993 3.58416 19.5981 3.82411 19.6122 3.92292C19.7251 4.8404 20.0639 6.01195 20.2756 6.95766L20.3179 7.38111C18.9488 7.73399 17.5796 8.11509 16.2105 8.4962L15.8435 8.43974C15.3494 7.6493 14.8554 6.80239 14.2626 6.06841C14.6437 6.85885 15.0389 7.66341 15.4483 8.43974V8.65146C13.9803 9.3431 12.5264 10.0206 11.0585 10.7123L10.8185 10.6135C10.3951 10.2182 9.97161 9.85124 9.5905 9.42779C9.43524 9.5266 9.61874 9.63952 9.68931 9.72421C9.91515 9.99239 10.1975 10.2465 10.4374 10.5147L10.4798 10.7264L4.62201 15.2432L4.41028 15.1585C12.837 -2.13244 37.3125 -2.31594 46.1626 14.7633L46.1344 14.7351Z" fill="#FD7700"/>
<path d="M46.3319 25.4907L46.6001 25.6036L48.2375 29.2877L48.308 29.9229C47.9269 31.9131 47.2212 33.9315 46.3319 35.7524C46.2472 35.7524 46.1343 35.7524 46.1202 35.6959C45.8238 34.4397 45.5132 32.8164 45.358 31.5461C45.2309 31.2356 45.2592 31.0238 45.4427 30.925C45.612 30.9533 46.1625 31.1367 46.2331 30.925C45.7532 30.798 45.2309 30.6851 44.751 30.5298C44.3135 29.0195 43.6501 27.5515 42.7749 26.1259C42.7326 25.9848 42.7326 25.8295 42.7749 25.6883C42.8314 25.6883 42.9725 25.5895 43.1137 25.5895C44.1864 25.5472 45.2592 25.5331 46.3319 25.4907Z" fill="#FD9600"/>
<path d="M46.1344 14.7351C47.0943 16.5842 47.6306 18.0239 48.1105 20.0706L47.8988 20.1411L43.4102 15.3561L43.4667 15.1303C43.4667 15.1303 44.2712 14.6222 43.9184 14.6363C43.5655 14.9186 43.0574 15.0315 42.6762 15.2291L42.4222 15.2715C41.1801 14.3963 39.9379 13.5071 38.6958 12.6037L38.724 12.3779C39.2463 11.8133 39.9238 11.164 40.4037 10.5994L46.1344 14.7492V14.7351Z" fill="#FD7F00"/>
<path d="M45.4428 30.925L46.3321 35.7665C46.1203 36.1899 44.5677 38.9988 44.3136 38.9988L42.5916 37.6297L42.4504 37.4462C42.4787 36.8392 42.4222 36.2181 42.2952 35.583L42.4928 35.4559C43.0433 35.7382 43.5938 36.0205 44.1301 36.3452C44.483 36.3875 43.7208 35.8794 43.6784 35.8512L43.4808 35.5971C43.5373 33.9033 43.015 32.1671 42.4363 30.5721C42.3799 30.3322 42.4504 30.3039 42.6904 30.3322C43.6079 30.5298 44.5395 30.7415 45.4569 30.925H45.4428Z" fill="#FEA000"/>
<path d="M9.42115 16.316L9.35057 16.683C8.2496 17.6569 7.23332 18.7014 6.30172 19.8165L5.96296 19.9718C5.41247 19.8588 4.84787 19.76 4.28327 19.6753L5.46893 20.0706L5.58186 20.2541L2.23658 25.3073H2.01074C2.01074 23.557 2.16601 22.3572 2.50477 20.6634C2.77296 20.0423 3.13995 19.5201 3.57751 19.0825C4.60791 17.798 5.723 16.5841 6.89455 15.4126C6.96513 15.342 7.04982 15.2997 7.14862 15.2573C7.24743 15.215 7.34624 15.1726 7.44504 15.1444C8.08022 15.5537 8.77186 15.9207 9.42115 16.3301V16.316Z" fill="#FD8400"/>
<path d="M42.7752 25.6884C43.3681 26.8317 44.0456 27.9326 44.4973 29.1465C44.6525 29.5559 44.9772 30.1205 44.7513 30.5298C43.3116 30.064 41.8577 29.6123 40.4039 29.1465C40.2345 29.0054 40.1216 28.8078 40.051 28.5255L39.4864 27.5657L39.6135 27.368C39.8534 27.368 40.1075 27.368 40.3616 27.368C40.4745 27.368 40.7285 27.4386 40.7003 27.2692L33.8969 25.9848C35.0966 25.9142 36.3105 25.9424 37.4962 25.886C39.2465 25.8154 41.0108 25.7589 42.7752 25.6884Z" fill="#FEA200"/>
<path d="M11.4821 11.6721L11.595 11.9685C10.2964 12.8437 9.02604 13.7753 7.78391 14.7492L7.43104 14.8339C7.14873 14.6927 6.8382 14.5092 6.54178 14.4387C6.78174 14.6645 7.16285 14.9468 7.43104 15.1303C6.11833 16.4571 4.90444 17.7275 3.73289 19.1813C3.6482 19.2942 3.47882 19.3225 3.42236 19.4072C3.15417 19.76 3.01302 20.4376 2.50488 20.6634C2.92833 18.5462 3.43647 17.0641 4.38218 15.1303L10.4093 10.4865C10.7763 10.8817 11.1292 11.2769 11.4962 11.6721H11.4821Z" fill="#FD7D00"/>
<path d="M7.64261 20.7622L7.55791 21.0586C6.56986 22.3572 5.68061 23.684 4.89017 25.0673L4.67844 25.1944C4.1703 25.2226 3.63393 25.3637 3.09755 25.2932C3.06932 25.4625 3.3234 25.392 3.43632 25.392C3.81743 25.4061 4.19853 25.3778 4.56552 25.392C4.6361 25.4343 4.7349 25.5049 4.70667 25.5472C4.21264 26.8458 3.521 28.582 2.88583 29.7959C2.82937 30.0923 2.68822 30.2334 2.49061 30.2193C2.05304 28.6667 1.99658 26.8882 1.99658 25.279L5.45477 20.0424C6.14641 20.3529 6.90862 20.5082 7.62849 20.734L7.64261 20.7622Z" fill="#FD8A00"/>
<path d="M45.8381 20.0705L46.0498 20.0282C46.8685 21.228 47.6731 22.4419 48.4917 23.6558L48.7035 24.3051C48.7881 26.2247 48.6752 28.0456 48.3082 29.937L46.3321 25.4907C46.7838 25.4766 47.2496 25.4907 47.7154 25.4907C47.6589 25.3072 47.1932 25.406 47.0238 25.3919L46.7979 25.2931C46.0922 23.7405 45.1465 22.2866 43.9608 20.9457C43.8338 20.7481 43.8338 20.6493 44.0596 20.5505C44.6383 20.367 45.2594 20.2399 45.8381 20.0564V20.0705Z" fill="#FD8C00"/>
<path d="M43.4665 15.1302L48.1104 20.0705C48.4633 21.5667 48.6326 22.7665 48.7032 24.3192L45.8379 20.0705C45.8379 20.0705 46.1343 19.9576 46.1343 19.9294C46.1202 19.8447 45.9084 19.8729 45.8379 19.887L45.4567 19.6894C44.4969 18.5038 43.4242 17.4169 42.2385 16.4429L42.0833 16.0336C42.5349 15.7372 43.0148 15.4408 43.4665 15.1444V15.1302Z" fill="#FD8500"/>
<path d="M42.6763 30.3322C42.5069 30.4028 42.6622 30.6427 42.7045 30.7556C43.1844 32.026 43.4526 33.2822 43.6643 34.6373V35.8653C42.7892 35.3007 41.8858 34.7502 40.9966 34.1856C40.7849 33.494 40.5873 32.7882 40.3896 32.0683C40.1215 31.786 40.0085 31.4614 40.065 31.1367L39.4722 29.8946C39.4722 29.7958 39.5286 29.7111 39.6133 29.6547C40.6296 29.8805 41.66 30.1205 42.6763 30.3463V30.3322Z" fill="#FEA300"/>
<path d="M6.95112 25.4907V25.9001C6.13245 27.3257 5.41258 28.8078 5.04559 30.4028L4.7774 30.7133C4.15634 30.8544 2.99891 31.2073 2.56134 30.5157C2.49076 30.4028 2.53311 30.304 2.50488 30.2193L4.57979 25.3778C5.37024 25.406 6.16068 25.4343 6.95112 25.4766V25.4907Z" fill="#FD9300"/>
<path d="M40.0087 10.5852C39.4158 11.1074 38.7524 11.7991 38.1314 12.3637L37.8914 12.4625L34.3062 10.811L34.278 10.5852C34.6308 9.90765 34.8708 9.13132 35.3648 8.51025L40.0087 10.5852Z" fill="#FD8000"/>
<path d="M11.4818 25.6884C11.9899 25.7449 11.9335 26.0977 11.3265 26.7188C11.2842 26.9305 11.2136 27.0858 11.0866 27.1705C10.6631 27.2552 10.2397 27.354 9.80211 27.3681L10.6914 27.4669H11.0583C10.8749 28.0033 10.649 28.5255 10.3949 29.0478C9.20928 29.4148 8.02361 29.7818 6.83795 30.1346C6.80972 30.0641 6.78148 29.9935 6.76737 29.9229C6.64033 29.3019 8.22122 26.3236 8.74348 25.759L9.12459 25.5896C9.91503 25.6178 10.7055 25.6461 11.4959 25.6884H11.4818Z" fill="#FEA000"/>
<path d="M40.5024 17.0075C40.6012 16.9652 40.7 16.9511 40.8129 16.9793C41.1799 17.0922 44.2005 19.8023 44.0594 20.1128C44.0311 20.1975 43.9465 20.2399 43.8618 20.2681C42.9725 20.4516 42.0833 20.6633 41.194 20.8609L40.9258 20.8327C40.573 20.3951 40.1777 19.9293 39.6555 19.7035L39.5284 19.4777C39.4437 19.4777 39.3026 19.4635 39.232 19.4777C38.9921 19.3788 38.0605 18.7578 38.1593 18.5319C38.1875 18.4896 38.2157 18.4331 38.2581 18.3908C38.978 17.8827 39.7825 17.4733 40.5306 17.0075H40.5024Z" fill="#FD9000"/>
<path d="M9.81627 21.4538L9.9433 21.6232L7.61432 24.9403L7.26145 25.1096C6.41454 25.1379 5.55352 25.1661 4.6925 25.2085C4.6925 24.9403 4.876 24.7144 5.01715 24.4886C5.77936 23.1759 6.68273 21.9338 7.65667 20.7622C8.37653 20.988 9.11052 21.228 9.83039 21.4538H9.81627Z" fill="#FD9300"/>
<path d="M11.3833 17.6004L11.4962 17.8121C10.5505 18.7578 9.59066 19.6753 8.61672 20.5646C7.74159 20.3669 6.83822 20.1693 5.94897 19.9717C6.85234 18.5461 8.26385 17.5439 9.40716 16.3159C10.0706 16.7394 10.7199 17.1769 11.3833 17.6004Z" fill="#FD8C00"/>
<path d="M20.8685 9.71011L20.5298 9.96418C19.5417 10.1336 18.5678 10.3735 17.6362 10.7264L17.2127 10.684C16.7469 9.93595 16.2953 9.15962 15.8295 8.41152C17.1704 7.83281 18.6807 7.66343 20.064 7.25409C20.3181 7.18351 20.3039 7.23997 20.2757 6.92944C20.4733 7.84692 20.6709 8.77851 20.8685 9.69599V9.71011Z" fill="#FD7F00"/>
<path d="M42.0834 21.2562L42.4221 21.3974C42.7891 21.7926 45.1322 24.5591 44.9629 25.1379C44.9346 25.2226 44.8358 25.2649 44.7511 25.3073C43.9607 25.2649 43.1702 25.2508 42.3798 25.2084L41.8011 25.0814C41.7164 25.025 40.5025 23.4723 40.8977 23.3453C40.8977 23.2606 41.1518 23.2888 41.1377 23.3029C41.0247 23.3311 40.6578 23.3594 40.6013 23.2464C40.2202 23.2888 39.2321 22.2866 39.6132 21.962C40.4037 21.6656 41.2788 21.5244 42.0834 21.2703V21.2562Z" fill="#FD9800"/>
<path d="M39.6131 29.6406C39.6978 30.0782 40.2342 30.8263 40.2906 31.1933C40.3047 31.3485 40.1777 31.5461 40.2201 31.6026C40.2483 31.6449 40.4036 31.6308 40.5165 31.8567C40.7 32.1954 40.9399 33.2964 41.0246 33.7199C41.067 33.8892 41.1375 34.0163 40.9964 34.1856C40.2765 33.7198 39.5425 33.2682 38.8227 32.8024C38.7239 32.5624 38.1028 31.1227 38.2157 31.0098C38.2439 30.9815 38.2863 30.9533 38.3286 30.9251C38.6533 31.038 39.1755 31.1933 39.5143 31.2779C39.6131 31.3062 39.839 31.405 39.8107 31.2215L33.6001 28.2573C35.6327 28.5961 37.6229 29.1889 39.6272 29.6406H39.6131Z" fill="#FEAA00"/>
<path d="M29.6481 8.72207C29.3235 9.73836 28.9565 10.7546 28.6601 11.785C28.4907 12.0956 27.4038 11.9968 27.2768 11.6862C27.3191 11.0934 27.4038 10.5006 27.3756 9.90774L27.0792 11.0934C26.9804 11.4039 25.9218 11.4039 25.7947 11.0934C25.7524 10.19 25.7242 9.24433 25.6959 8.32685L25.9782 8.15747L28.4907 8.29862C29.013 8.28451 29.3941 8.41154 29.6481 8.72207Z" fill="#FD8400"/>
<path d="M47.0235 25.3919C46.2613 25.3495 45.5132 25.3213 44.751 25.2931C44.878 24.8555 44.2852 24.0933 44.017 23.6981C43.4242 22.8229 42.6479 22.1172 42.0833 21.2421C42.7325 21.0444 43.3959 20.7621 44.0594 20.5504C44.017 20.7763 44.144 20.861 44.2429 21.0021C44.8075 21.8067 45.4709 22.5548 46.0072 23.3875C46.3742 23.9663 46.9106 24.7426 47.0094 25.3919H47.0235Z" fill="#FD9100"/>
<path d="M9.12466 25.5895C8.09426 26.874 7.31793 28.5396 6.85214 30.1346C6.1605 30.3322 5.48297 30.558 4.77722 30.7274C5.11598 28.8925 6.01935 27.0998 6.95094 25.4907C7.67081 25.519 8.40479 25.5613 9.12466 25.5895Z" fill="#FD9900"/>
<path d="M20.8684 9.71008C21.0661 10.5993 21.2637 11.4886 21.4613 12.3778C21.5177 12.7025 20.4732 13.0271 20.2756 12.7731L19.3864 10.9946C19.5699 11.7285 19.8239 12.4625 20.078 13.1683C20.1203 13.4929 19.1605 13.7188 18.9911 13.4647C18.4124 12.5472 17.7914 11.6297 17.2126 10.6981C18.356 10.19 19.6263 9.90769 20.8684 9.71008Z" fill="#FD8800"/>
<path d="M13.8531 19.1814C14.0366 19.4778 13.2885 20.1412 12.9639 20.0706C12.3287 19.8448 11.6512 19.633 10.9878 19.4778L12.4699 20.2682C12.5122 20.4799 12.3711 20.7058 12.0323 20.9175C11.9053 21.1433 11.75 21.2563 11.5806 21.2563C10.5926 21.0304 9.60451 20.7905 8.61646 20.5646C8.61646 20.0565 9.25163 19.7742 9.54805 19.4778C9.70331 19.3225 9.80212 19.1108 9.98562 18.9273C10.4232 18.5179 11.1431 18.151 11.3689 17.6005C12.1876 18.1227 13.0345 18.6309 13.839 19.1814H13.8531Z" fill="#FD9400"/>
<path d="M38.724 12.3638L42.6762 15.2291C42.0552 15.5397 41.42 15.8925 40.7989 16.2172L40.4884 16.2454C40.3049 16.2031 37.3831 14.3399 37.2702 14.1846C37.2278 14.114 37.2419 14.0294 37.2561 13.9447C37.7501 13.4224 38.2441 12.9001 38.7381 12.3638H38.724Z" fill="#FD8700"/>
<path d="M25.2018 6.8447C25.1736 7.60691 25.1312 8.35501 25.103 9.11722L25.0465 9.31483C23.8891 9.41364 22.7317 9.49833 21.5742 9.59713L21.4472 9.41364C21.2072 8.6232 20.8967 7.83275 20.6567 7.04231C21.5319 7.25404 22.5623 6.90116 23.4656 6.8447C24.0444 6.81647 24.6231 6.87293 25.1877 6.8447H25.2018Z" fill="#FD8000"/>
<path d="M38.1451 12.3637C37.5946 12.8577 37.0159 13.3518 36.4654 13.8458C36.3384 14.0857 34.8563 13.2529 34.814 13.1683C34.7857 13.1259 34.941 13.0977 34.941 13.14C34.941 13.1965 34.7857 13.1824 34.701 13.1541C34.5175 13.2812 34.3482 13.4788 34.207 13.6482C33.8965 13.9022 32.8378 13.6199 32.9225 13.1541C33.3742 12.2931 33.8541 11.4462 34.3058 10.5852L38.1592 12.3637H38.1451Z" fill="#FD8700"/>
<path d="M14.3473 14.8339L14.2626 15.1021C13.3028 15.6526 12.3712 16.2313 11.4537 16.8523L11.1855 16.81C10.4939 16.443 9.80222 16.0901 9.11059 15.7231L9.06824 15.5114L12.5547 12.9707L12.7664 13.0554C13.3028 13.6341 13.8109 14.2552 14.3473 14.8339Z" fill="#FD8900"/>
<path d="M40.7989 16.2171C40.0508 16.5982 39.2886 17.0075 38.5264 17.4028C38.484 17.4028 38.4417 17.431 38.3994 17.4169C38.3288 17.4169 37.2137 16.5841 37.2137 16.4853C37.2137 16.4288 37.2278 16.3724 37.2419 16.3159C37.369 16.203 37.5383 16.1183 37.6371 15.963C37.6513 15.8925 37.5383 15.8925 37.496 15.9207C37.3548 15.9771 36.5926 16.5559 36.3527 16.7111C36.028 16.8523 35.2517 16.4712 35.2658 16.1183C35.9292 15.3984 36.5785 14.6644 37.2419 13.9446L40.7989 16.2171Z" fill="#FD8E00"/>
<path d="M35.181 8.12922C34.8987 8.76439 34.4612 9.329 34.0942 9.90771L33.9248 10.063C32.6827 9.72422 31.4405 9.38546 30.1984 9.0467L30.142 8.82086C30.2831 8.22802 30.396 7.63519 30.5372 7.04236C32.1322 7.12705 33.6566 7.67753 35.181 8.12922Z" fill="#FD7E00"/>
<path d="M15.4341 8.42566C15.7023 8.94792 15.9564 9.48429 16.2246 10.0065C16.2528 10.0771 16.2952 10.19 16.2528 10.2183C15.3636 10.6841 13.5568 11.6157 12.6535 11.8838C12.47 11.9968 12.3571 12.0109 12.1736 11.8838C11.7078 11.4604 11.2561 11.0228 10.7903 10.5994L15.4341 8.42566Z" fill="#FD7E00"/>
<path d="M30.241 6.74598C30.0152 7.39527 29.8599 8.0728 29.6482 8.72209C28.3637 8.34098 27.0087 8.51036 25.696 8.32687C25.6677 7.70581 25.5125 7.01417 25.5972 6.35076C25.8795 6.36488 26.1618 6.32253 26.4441 6.35076C26.5711 6.35076 26.6981 6.44957 26.7405 6.44957H28.4202L30.241 6.74598Z" fill="#FD7D00"/>
<path d="M42.0835 16.0195C43.4103 17.2193 44.8077 18.3909 45.8381 19.8729C45.3158 19.9153 44.4124 20.1552 43.8619 20.2682C43.9043 20.0423 43.7914 19.9718 43.6643 19.8165C43.2973 19.3648 42.5775 18.7014 42.1399 18.2921C41.66 17.8545 41.0531 17.3746 40.5026 17.0076C41.0107 16.6829 41.5612 16.3442 42.0835 16.0195Z" fill="#FD8900"/>
<path d="M18.4973 14.3398C18.5679 14.6503 17.7351 15.0597 17.5092 14.8338C17.0434 14.2974 16.5494 13.747 16.0272 13.2529C15.8766 13.0553 15.8766 13.0553 16.0272 13.2529C16.2107 13.5917 16.3236 13.9728 16.62 14.241C16.7047 14.5656 15.8013 15.1161 15.5331 14.9326C14.9403 14.3821 14.3475 13.8034 13.7546 13.2529L13.8252 12.9424C14.7568 12.3778 15.759 11.912 16.8035 11.5732L17.0999 11.6579C17.5657 12.5472 18.0174 13.4364 18.4832 14.3257L18.4973 14.3398Z" fill="#FD8B00"/>
<path d="M16.1258 16.7112C16.4646 17.0782 15.66 17.4169 15.3354 17.4028L12.964 15.9207C13.5145 16.4853 14.1497 16.937 14.7425 17.4452C14.8978 17.5722 15.0248 17.798 15.1378 17.8968C15.0107 18.1791 14.7567 18.3767 14.3473 18.4897C13.2887 17.9392 12.2442 17.3605 11.1855 16.81L12.5265 15.9207C12.6394 15.7937 12.5547 15.2855 12.8088 15.8219C13.2463 15.3985 13.8109 15.1162 14.3332 14.8339C14.9119 15.469 15.533 16.076 16.1117 16.7112H16.1258Z" fill="#FD9200"/>
<path d="M12.7665 13.0554L9.11073 15.7231C8.54612 15.4267 7.99563 15.1303 7.43103 14.8339C8.48966 13.6623 9.97174 12.9848 11.2139 12.0532C11.355 11.9403 11.4821 11.8838 11.4821 11.6721C11.9055 12.1379 12.3431 12.5896 12.7665 13.0554Z" fill="#FD8200"/>
<path d="M11.9759 22.1455C11.9759 22.1455 12.0606 22.202 12.0889 22.2302C12.2441 22.4419 11.2984 23.2465 11.0867 23.43L9.70341 23.3312L10.8891 23.6276L11.0302 23.8111C11.0302 23.8958 10.1974 24.9826 9.99983 25.0108C9.08235 25.0532 8.16487 25.0673 7.23328 25.1097L9.80222 21.4539C10.5221 21.6797 11.2561 21.9197 11.9759 22.1455Z" fill="#FD9A00"/>
<path d="M17.1139 11.6721C15.9988 12.1379 14.6861 12.4908 13.7545 13.253C13.2746 12.8013 12.6817 12.3496 12.1736 11.8697L16.2246 9.99243C16.5069 10.5429 16.8174 11.1075 17.1139 11.6721Z" fill="#FD8300"/>
<path d="M40.8979 23.3171C41.039 23.797 41.5189 24.3051 41.8295 24.7003C42.0412 24.9685 41.8859 25.0814 42.38 25.1802C41.3778 25.1379 40.3615 25.0814 39.3734 24.9826L33.5016 24.785L34.4755 24.5168C36.5504 24.1075 38.6395 23.7687 40.7144 23.4017C40.6438 23.2606 40.785 23.2324 40.912 23.3029L40.8979 23.3171Z" fill="#FEA100"/>
<path d="M25.1031 9.11731C25.0607 10.0348 25.0466 10.9664 25.0043 11.8839C24.9055 12.1944 23.8468 12.1803 23.7198 11.8839C23.5786 11.1358 23.3387 10.3877 23.3246 9.61134C23.1552 9.58311 23.2258 9.85129 23.2258 9.9501C23.254 10.3594 23.2963 10.7688 23.3246 11.1922C23.1128 11.4745 22.0966 11.6016 21.9413 11.1922C21.7578 10.6135 21.6308 9.99244 21.4473 9.41373L25.1031 9.11731Z" fill="#FD8600"/>
<path d="M10.2962 29.7394C12.724 29.203 15.1518 28.5678 17.5937 28.0597L14.9683 29.4288C13.3168 30.064 12.2158 31.0662 10.395 31.1227L9.91507 31.038C9.60454 30.8121 10.1127 30.0076 10.2962 29.7394Z" fill="#FEA800"/>
<path d="M34.0944 9.90766C33.7557 10.4299 33.4452 10.9663 33.1064 11.4885L32.9088 11.6156C32.4571 11.5591 31.3702 11.3756 31.3279 10.8957C31.2714 10.9522 31.1585 11.0369 31.1303 11.0933C31.0738 11.418 29.7611 11.051 29.6905 10.9381C29.6623 10.8957 29.6623 10.8534 29.6482 10.7969C29.8035 10.1335 29.987 9.48421 30.1422 8.8208L34.0944 9.90766Z" fill="#FD8500"/>
<path d="M42.4785 35.456C42.4079 36.2182 42.8878 36.8816 42.5773 37.6297C41.194 36.7828 39.9377 35.7242 38.625 34.7643C38.4557 34.3127 38.3992 33.8892 38.4698 33.5081L38.625 33.4799C39.8954 34.1433 41.194 34.7926 42.4785 35.456Z" fill="#FEA800"/>
<path d="M39.6132 27.368C39.8532 27.9609 40.4319 28.4549 40.4037 29.1465C38.0747 28.4125 35.7598 27.5798 33.4026 26.9728C33.4308 26.7893 33.9107 26.874 34.0378 26.874C35.8868 27.001 37.7783 27.2692 39.6132 27.368Z" fill="#FEA700"/>
<path d="M38.3288 30.925C38.4417 31.5884 38.964 32.0683 38.8228 32.8023C36.8326 31.532 34.8283 30.2616 32.7957 29.0477C32.7816 28.8642 32.9933 28.963 33.0921 28.9913C34.8565 29.5135 36.5927 30.3322 38.3147 30.925H38.3288Z" fill="#FEAB00"/>
<path d="M10.6916 27.4668C12.3854 27.1986 14.1639 27.2127 15.8718 26.9728L16.8034 27.0716L10.3811 29.0477C10.127 28.5678 10.621 28.1302 10.8045 27.735C10.8892 27.5515 10.988 27.4245 10.6775 27.4668H10.6916Z" fill="#FEA600"/>
<path d="M40.6013 23.2182C40.686 23.2464 40.686 23.2888 40.6013 23.317L33.7979 23.811L39.6274 21.9337C39.7544 22.4842 40.2908 22.7947 40.6154 23.2182H40.6013Z" fill="#FEA100"/>
<path d="M10.889 23.6134C12.6957 23.9945 14.6718 24.1639 16.4503 24.6156C16.5633 24.6438 16.8173 24.6438 16.8032 24.7991C14.5307 24.8132 12.2723 24.912 9.99976 24.9967C10.0986 24.4462 10.7196 24.1357 10.889 23.6134Z" fill="#FEA100"/>
<path d="M39.2181 19.4777C39.0911 19.506 38.7806 19.7177 38.583 19.7741C36.748 20.3529 34.9695 21.1151 33.1063 21.6514L38.2442 18.3909C38.3571 18.8849 39.1617 18.9414 39.2323 19.4777H39.2181Z" fill="#FD9C00"/>
<path d="M41.194 20.8611C40.206 21.0728 39.2179 21.341 38.2299 21.5527C37.9758 21.4821 37.2277 20.9599 37.3406 20.6634C37.3547 20.6634 37.4112 20.5364 37.51 20.4941C38.1875 20.1694 38.8933 19.9154 39.5143 19.4778C40.0931 19.4919 40.8553 20.3953 41.194 20.8611Z" fill="#FD9A00"/>
<path d="M38.6253 33.494C38.4136 33.8751 38.9782 34.3832 38.6253 34.7785C36.6774 33.3387 34.659 31.9837 32.7958 30.431C34.8001 31.3344 36.6774 32.4777 38.6253 33.494Z" fill="#FEAF00"/>
<path d="M11.9759 22.1455C13.6133 22.6678 15.2647 23.1618 16.888 23.6982C17.015 23.7405 17.2973 23.7687 17.3114 23.924C15.2365 23.7405 13.1616 23.5711 11.0867 23.43C11.0867 22.8654 11.863 22.6678 11.9759 22.1455Z" fill="#FEA000"/>
<path d="M36.4656 13.8458C35.7457 14.4951 34.9976 15.1867 34.2919 15.8219C33.939 16.0336 33.1627 15.7654 33.3038 15.3279C33.7978 14.6221 34.2495 13.9022 34.6871 13.1541C34.7153 13.1118 34.8141 12.9424 34.8282 12.9565L36.4515 13.8458H36.4656Z" fill="#FD8F00"/>
<path d="M11.4821 25.6884C13.0488 25.7589 14.6015 25.9142 16.1683 25.886L17.0999 26.0836C15.0814 26.38 13.0771 26.8034 11.0727 27.1704C10.9316 26.6058 11.4256 26.38 11.6232 25.9848C11.7361 25.7448 11.6232 25.8154 11.4679 25.6884H11.4821Z" fill="#FEA400"/>
<path d="M34.1931 13.6482C32.9228 15.1303 31.7089 16.6971 30.3397 18.0944C31.0737 16.3865 32.0476 14.7915 32.9087 13.1542C33.1768 13.4788 33.7979 13.5212 34.1931 13.6482Z" fill="#FD9500"/>
<path d="M28.6598 11.7709L26.8813 17.2052C26.9378 15.3561 27.1495 13.5212 27.2766 11.6721L28.6598 11.7709Z" fill="#FD9301"/>
<path d="M27.0793 11.0792L26.0489 16.9087C25.809 14.9891 25.8795 13.0271 25.809 11.0792H27.0934H27.0793Z" fill="#FD8F00"/>
<path d="M10.2961 29.7394C10.4937 30.1346 9.91495 30.5581 9.99964 30.9674L10.3949 31.1227C9.68911 31.1509 9.02571 31.0238 8.37641 31.0238C7.1484 31.0097 5.90627 31.0521 4.67826 31.0238C4.65003 30.8827 4.84765 30.8827 4.96057 30.8545C6.69672 30.3604 8.54579 30.1346 10.3102 29.7394H10.2961Z" fill="#FEA001"/>
<path d="M16.6199 14.241L19.7817 18.8848C18.3137 17.6286 16.9587 16.2453 15.5331 14.9326L16.6199 14.241Z" fill="#FD9300"/>
<path d="M12.47 20.2682L15.5612 21.6656L17.1986 22.5407C15.3071 22.1737 13.444 21.6797 11.5667 21.2562C11.6937 20.8469 12.1454 20.5364 12.4559 20.2682H12.47Z" fill="#FE9E00"/>
<path d="M21.4612 12.3638C21.8423 14.0999 22.3504 15.8361 22.6468 17.6005L20.2755 12.759L21.4612 12.3638Z" fill="#FD9301"/>
<path d="M25.004 11.8698C24.9193 13.6482 24.8346 15.4267 24.764 17.2052C24.3124 15.455 24.0724 13.6482 23.7336 11.8698H25.0181H25.004Z" fill="#FD9201"/>
<path d="M33.1062 11.4744C32.6828 12.1378 32.2452 12.7871 31.8218 13.4505C31.61 13.7046 30.6926 13.4929 30.6361 13.1541C30.8902 12.4201 31.0878 11.6297 31.3277 10.8816C31.5112 10.6981 31.356 10.9663 31.6665 11.0933C32.0758 11.2486 32.6828 11.2768 33.1062 11.4744Z" fill="#FD8B00"/>
<path d="M38.5263 17.4028C37.7641 17.798 37.016 18.1932 36.2537 18.5884C36.0703 18.5602 35.4351 18.2497 35.3927 18.1368C35.3645 18.0662 35.421 17.9674 35.4633 17.8968C36.0561 17.3887 36.649 16.8382 37.2418 16.3159C37.5523 16.7676 38.3428 16.8805 38.5263 17.4028Z" fill="#FD9500"/>
<path d="M31.8219 13.4506L28.9565 17.8968C29.4082 16.4006 29.9305 14.9044 30.4527 13.4224C30.4951 13.2953 30.608 13.1965 30.6221 13.1542L31.8078 13.4506H31.8219Z" fill="#FD9401"/>
<path d="M36.3669 16.7112L32.0194 19.6754C32.9933 18.3909 34.1931 17.3041 35.28 16.1184L36.3669 16.7112Z" fill="#FD9A01"/>
<path d="M13.8534 19.1813L17.8056 21.7502C16.1541 21.3268 14.5732 20.6351 12.9641 20.0705L13.8534 19.1813Z" fill="#FE9E00"/>
<path d="M37.355 20.6635C37.6656 20.9458 38.1031 21.1293 38.2443 21.5527C36.5646 21.9197 34.899 22.329 33.2052 22.6396L36.988 20.7481C37.0868 20.6635 37.2844 20.7058 37.355 20.6776V20.6635Z" fill="#FEA100"/>
<path d="M31.13 11.0793C30.7913 11.8132 30.509 12.6178 30.142 13.3518C30.015 13.6341 29.1539 13.3659 29.1539 13.0554C29.3233 12.3073 29.4786 11.5451 29.648 10.7828L31.13 11.0793Z" fill="#FD8B00"/>
<path d="M17.5092 29.1465L14.3616 31.1791C13.5711 31.3484 12.7807 31.0944 11.9902 31.1226L17.5233 29.1465H17.5092Z" fill="#FEAD00"/>
<path d="M18.4971 14.3398C18.6806 14.7068 18.9488 15.0597 19.1464 15.4267L20.6708 18.4897C19.4993 17.3887 18.5677 16.0478 17.509 14.8339L18.4971 14.3398Z" fill="#FD9801"/>
<path d="M20.0781 13.1542C20.6003 14.6363 21.1932 16.0901 21.659 17.6004C20.685 16.2877 19.8663 14.8339 18.9912 13.4506L20.0781 13.1542Z" fill="#FD9501"/>
<path d="M34.2918 15.8219C33.2473 16.7817 32.2734 17.8686 31.1865 18.7861C31.0736 18.8849 31.0313 19.026 30.8478 18.9837L33.3179 15.3279C33.5155 15.6384 33.9813 15.6949 34.306 15.8219H34.2918Z" fill="#FD9A01"/>
<path d="M35.4774 17.8969C35.6326 18.2356 36.2819 18.2215 36.2678 18.5885C35.7738 18.8426 35.2798 19.1531 34.7857 19.4354L32.2168 20.6634C33.2331 19.6753 34.4046 18.8284 35.4774 17.8969Z" fill="#FD9D01"/>
<path d="M16.1258 16.7112C17.1138 17.798 18.1301 18.8567 19.0899 19.9718C18.6241 19.7883 18.1866 19.4495 17.7772 19.1672C16.9586 18.6167 16.0975 18.0521 15.3353 17.4028C15.4906 17.0499 16.1399 17.0499 16.1258 16.7112Z" fill="#FD9B01"/>
<path d="M23.3385 11.178C23.3949 11.9261 23.4796 12.6883 23.5361 13.4505C23.5361 13.7611 22.8445 13.8316 22.7456 13.5493C22.5057 12.7589 22.1952 11.9685 21.9552 11.178C22.3645 11.3756 22.8727 11.0792 23.3385 11.178Z" fill="#FD8D00"/>
<path d="M30.1422 13.3518L28.2649 17.1064C28.4484 15.7373 28.8577 14.3964 29.1541 13.0554L30.1422 13.3518Z" fill="#FD9501"/>
<path d="M15.1377 17.8969C15.1377 17.8969 15.3071 17.9251 15.3776 17.9957C16.3234 18.8002 17.2691 19.633 18.1865 20.4658C16.8597 19.9012 15.6176 19.1531 14.3331 18.4897C14.3614 18.165 14.8554 18.0239 15.1236 17.8969H15.1377Z" fill="#FD9D01"/>
<path d="M23.5362 13.4506C23.635 14.6362 23.7479 15.8219 23.8326 17.0076L23.4091 15.8925C23.1409 15.1303 22.9857 14.3116 22.7457 13.5494L23.5362 13.4506Z" fill="#FD9601"/>
<path d="M18.3982 30.1346C17.8336 30.7557 17.2548 31.4756 16.3232 31.2215L17.0149 30.7698L18.3982 30.1346Z" fill="#FEB103"/>
<path d="M40.6014 23.2183H41.2931V23.3171C41.166 23.3312 41.0108 23.2888 40.8979 23.3171C40.8414 23.3171 40.7567 23.4018 40.7002 23.4159C40.672 23.3735 40.6156 23.3453 40.6014 23.3171C40.6014 23.2888 40.6156 23.2324 40.6014 23.2183Z" fill="#FEB831"/>
<path d="M18.7937 31.0239C18.7231 31.1791 18.5819 31.3485 18.3984 31.3203C18.469 31.165 18.6102 30.9956 18.7937 31.0239Z" fill="#FEB207"/>
<path d="M16.0269 13.253C15.8998 13.1401 15.674 13.0836 15.7305 12.8578C15.9563 12.9001 15.9563 13.126 16.0269 13.253Z" fill="#FEC83E"/>
<path d="M162.163 36.4559H137.49V37.938H162.163V36.4559Z" fill="#FE8205"/>
<path d="M91.5878 36.4559H66.9147V37.938H91.5878V36.4559Z" fill="#FE8205"/>
<path d="M96.909 35.9618C96.429 35.6089 94.6647 34.9879 94.7352 36.0183C94.7635 36.5687 96.1044 36.724 96.5843 36.9357C98.5181 37.7968 97.5582 40.0269 95.5821 40.0128C95.1587 40.0128 93.3237 39.5611 93.4649 38.9965C93.5213 38.7989 93.9589 38.6295 93.9448 38.3331C94.5517 38.6295 94.9328 38.9824 95.6668 38.9683C96.4008 38.9542 96.8243 38.3755 96.1467 37.952C95.2575 37.3874 93.5072 37.7544 93.5355 36.0183C93.5778 34.1409 96.3161 34.0845 97.3747 35.129L96.8948 35.9618H96.909Z" fill="#FE8305"/>
<path d="M113.791 34.4799C113.819 35.9337 113.861 37.3734 113.889 38.8273C114.143 39.0814 116.077 38.8414 116.557 38.9261V39.9142H112.704V34.4799C112.986 34.5363 113.565 34.4093 113.791 34.4799Z" fill="#FE8305"/>
<path d="M113.889 38.8272C113.621 38.559 113.889 35.1008 113.791 34.4797C114.017 34.5503 113.833 38.3049 113.889 38.8272Z" fill="#FE8B17"/>
<path d="M104.799 34.4095C108.681 34.1131 108.949 39.7731 105.265 40.0131C101.581 40.2526 101.13 34.6922 104.799 34.4095ZM105.435 38.8832C107.354 38.5585 107.03 35.1008 104.687 35.4818C102.725 35.7923 102.993 39.3066 105.435 38.8832Z" fill="#FE8305"/>
<path d="M132.155 39.8999C132.225 39.5188 132.013 38.4602 132.253 38.2202C132.197 38.5166 132.366 39.8293 132.155 39.8999Z" fill="#FE952A"/>
<path d="M134.427 34.6072C135.979 35.1154 135.881 37.3879 134.427 37.9666L135.711 39.8855C135.344 39.8292 134.709 39.9847 134.399 39.8718C134.144 39.787 133.396 38.2343 133.227 38.1355C133.085 38.051 132.394 38.0794 132.253 38.2205C132.225 38.785 132.183 39.3356 132.154 39.9001C131.914 39.9707 131.35 39.8437 131.068 39.9001V34.4656H133.777C133.777 34.4656 134.356 34.5931 134.427 34.6072ZM134.427 36.3992C134.497 35.2561 132.973 35.6085 132.253 35.5662C132.168 36.0883 132.168 36.625 132.253 37.1472C132.945 37.1049 134.356 37.4154 134.427 36.3992Z" fill="#FE8305"/>
<path d="M132.253 37.1474C132.084 36.724 132.084 35.9617 132.253 35.5665V37.1474Z" fill="#FE952A"/>
<path d="M123.078 34.5077C123.332 34.4512 124.067 34.3808 124.222 34.5643L126.438 39.9003C126.184 39.8438 125.435 39.9844 125.266 39.8856C125.139 39.799 124.927 38.7149 124.688 38.6298C124.067 38.658 123.318 38.5446 122.726 38.6151C122.133 38.6857 122.161 39.7296 121.978 39.8856C121.893 39.9562 121.018 39.8574 120.806 39.8856L123.078 34.5077ZM122.881 37.6415H124.362L123.614 35.8632L122.881 37.6415Z" fill="#FE8305"/>
<path d="M137.334 11.7827C141.654 12.1779 144.406 15.7773 143.136 20.0542C142.445 22.3689 140.962 23.1732 138.902 24.02C138.803 24.0623 138.732 23.9642 138.76 24.1753L143.997 31.6284H140.002C138.294 29.3842 136.657 27.0691 135.119 24.7261H130.672V31.6284H127.214V11.7964H137.334V11.7827ZM130.672 14.9448V21.564H136.742C136.925 21.564 137.8 21.2536 138.012 21.1548C140.412 20.0115 140.553 16.3843 138.04 15.3257C137.829 15.2269 136.925 14.9448 136.742 14.9448H130.672Z" fill="#4CD7F8"/>
<path d="M158.705 19.3767C158.973 19.9554 159.199 20.6188 159.481 21.2257C161.189 24.9239 162.911 28.622 164.633 32.306H159.848C158.903 30.6122 158.281 28.7632 157.42 27.0411C157.322 26.8435 156.997 26.0531 156.799 26.0954L147.018 35.369H145.592L155.543 23.1595L150.815 12.672H155.501C156.574 14.9022 157.675 17.1324 158.705 19.3767Z" fill="#FE8205"/>
<path d="M158.804 19.1791C158.592 19.0238 159.1 18.8403 159.199 18.7274C161.189 16.5254 163.081 13.6883 165.212 11.5287C165.424 11.317 165.579 11.1335 165.875 11.0065C166.115 10.8935 166.821 10.6959 167.047 10.6959H172.919C171.578 11.938 170.322 13.2649 169.023 14.5493C167.724 15.8338 166.172 17.5135 164.774 18.5862C164.549 18.7556 164.393 19.052 164.125 19.1791C162.417 19.2638 160.526 19.2638 158.79 19.1791H158.804Z" fill="url(#paint0_linear_8835_614)"/>
<path d="M164.139 19.2779C164.139 19.4049 163.998 19.3767 163.899 19.3767C162.262 19.5319 160.371 19.2496 158.705 19.3767L158.804 19.2779C160.512 19.1932 162.403 19.1932 164.139 19.2779Z" fill="#FEF4CC"/>
<path d="M164.139 19.1791H158.804V19.2779H164.139V19.1791Z" fill="#FDC500"/>
<path d="M102.64 31.6143L111.236 11.7403C111.306 11.585 111.419 11.5992 111.561 11.585C112.45 11.4862 113.523 11.6838 114.426 11.585L123.262 31.6284H119.663L112.845 15.8337L106.183 31.6284H102.626L102.64 31.6143Z" fill="#4CD7F8"/>
<path d="M116.063 31.8121H109.754L112.817 24.4158L116.063 31.8121Z" fill="#FE8205"/>
<path d="M81.5096 13.8576C81.5661 13.9423 81.5096 14.0552 81.4673 14.1399L79.6888 16.6101C78.3902 15.7067 77.0069 14.9163 75.4119 14.6763C73.8169 14.4363 71.0504 14.7892 71.0504 16.9629C71.0504 18.4733 72.3349 19.052 73.5629 19.4895C76.9081 20.6611 81.8625 20.8163 82.1872 25.4743C82.7518 33.5481 70.7822 33.2517 66.9147 28.6361L68.9331 26.2083C70.9939 28.015 74.2263 29.483 76.9787 28.5232C78.856 27.8739 79.4488 25.5167 77.6421 24.4157C74.311 22.3831 67.9451 23.3429 67.6063 17.7675C67.2111 11.077 75.3272 10.343 79.9146 12.8696C80.1264 12.9825 81.4673 13.8012 81.5096 13.8859V13.8576Z" fill="#4CD7F8"/>
<path d="M95.8784 11.7827C96.4854 11.7827 97.8412 12.2347 98.4341 12.4888C103.204 14.5921 103.501 21.4233 99.0552 24.0347C98.2789 24.4863 96.345 25.2064 95.4839 25.2065H90.3032V31.6147H86.8452V11.7827H95.8784ZM90.3032 14.9448V22.0444H95.2856C95.6385 22.0444 96.8243 21.5501 97.1489 21.3384C98.9839 20.1527 99.1677 17.1319 97.4175 15.7769C96.994 15.4663 95.7938 14.9448 95.2856 14.9448H90.3032Z" fill="#4CD7F8"/>
<defs>
<linearGradient id="paint0_linear_8835_614" x1="165.958" y1="10.9744" x2="166.02" y2="18.9777" gradientUnits="userSpaceOnUse">
<stop stop-color="#FD7900"/>
<stop offset="1" stop-color="#FDC600"/>
</linearGradient>
</defs>
</svg>
